<svg width="252" height="252" viewBox="0 0 252 252" fill="none" xmlns="http://www.w3.org/2000/svg">
<g clip-path="url(#clip0_362_47)">
<path d="M61.3062 102.392L80.0701 155.391L118.889 53.0025H120.831L123.257 59.3105L156.255 155.392H157.225L187.311 70.9565C190.504 60.0575 187.848 56.4115 178.576 53.0025H186.34H194.104H197.501H204.781H246.027C247.963 52.7715 248.505 68.3405 249.91 83.5735L250.394 87.9415C242.567 64.7125 234.15 54.9955 227.587 55.4285H204.296C198.469 55.8315 196.363 57.5135 193.619 64.6485L159.166 160.245L142.667 205.373H138.785L104.818 107.837H102.876L81.5258 164.61L66.4829 204.887H63.0813L62.5966 203.918L15.5279 73.8675C11.7584 60.5545 7.9696 56.0015 0 53.0035H60.1715C50.9163 55.9215 47.4006 60.1295 49.9811 69.4995L61.3062 102.392Z" fill="#D3AA55"/>
<path d="M197.502 201.975H216.912C239.485 200.378 247.112 185.994 250.88 159.272H252.336V160.728C251.276 190.604 249.679 203.793 246.512 203.916L197.502 204.401V201.975Z" fill="#D3AA55"/>
<path d="M199.439 124.335H219.335C228.308 124.672 229.488 118.334 229.525 103.469H230.981V148.598H229.04C229.346 132.571 227.274 127.718 219.335 127.732H199.439V124.335Z" fill="#D3AA55"/>
</g>
<defs>
<clipPath id="clip0_362_47">
<rect width="252" height="252" fill="white"/>
</clipPath>
</defs>
</svg>
